<svg xmlns="http://www.w3.org/2000/svg" viewBox="0 0 722 224.1"><defs><style>.cls-1{fill-rule:evenodd;}.cls-2{fill:#e1853a;}</style></defs><g id="Layer_2" data-name="Layer 2"><g id="katman_1" data-name="katman 1"><path class="cls-1" d="M216.75,201.16c-20.3,15-49.73,22.94-75.07,22.94a135.8,135.8,0,0,1-91.7-35c-1.9-1.72-.21-4.06,2.07-2.73,26.12,15.2,58.41,24.35,91.76,24.35a182.44,182.44,0,0,0,70-14.33c3.43-1.45,6.31,2.27,2.95,4.75Z"/><path class="cls-1" d="M225.2,191.51c-2.6-3.32-17.16-1.57-23.71-.79-2,.24-2.29-1.49-.5-2.75,11.62-8.16,30.66-5.8,32.87-3.07s-.58,21.85-11.47,31c-1.68,1.4-3.27.65-2.53-1.2,2.45-6.12,7.94-19.82,5.34-23.15Z"/><path class="cls-1" d="M202,130.32v-7.93a2,2,0,0,1,2-2h35.54a2,2,0,0,1,2.05,2v6.8c0,1.14-1,2.63-2.68,5l-18.41,26.29c6.83-.16,14.06.86,20.27,4.35a3.63,3.63,0,0,1,1.89,3.1v8.46c0,1.16-1.28,2.51-2.62,1.81a40.92,40.92,0,0,0-37.55.07c-1.24.66-2.53-.67-2.53-1.84v-8a9.54,9.54,0,0,1,1.32-5.45l21.33-30.61H204a2,2,0,0,1-2.06-2Z"/><path class="cls-1" d="M72.3,179.85H61.49A2,2,0,0,1,59.55,178v-55.5a2,2,0,0,1,2.09-2H71.72a2,2,0,0,1,2,1.87v7.24h.21c2.62-7,7.57-10.28,14.23-10.28s11,3.27,14,10.28a16,16,0,0,1,27.45-4.2c3.43,4.67,2.73,11.44,2.73,17.4v35a2,2,0,0,1-2.09,2h-10.8a2,2,0,0,1-1.94-2V148.43c0-2.33.2-8.17-.3-10.39-.81-3.74-3.23-4.79-6.36-4.79a7.16,7.16,0,0,0-6.46,4.55c-1.11,2.81-1,7.48-1,10.63v29.42a2,2,0,0,1-2.09,2H90.47a2,2,0,0,1-1.94-2V148.43c0-6.19,1-15.29-6.66-15.29s-7.47,8.87-7.47,15.29v29.42a2,2,0,0,1-2.09,2Z"/><path class="cls-1" d="M272.26,130.68c-8,0-8.48,10.86-8.48,17.64s-.1,21.25,8.38,21.25,8.78-11.68,8.78-18.8c0-4.67-.2-10.28-1.62-14.72-1.21-3.85-3.63-5.37-7.06-5.37Zm-.1-11.33c16,0,24.73,13.79,24.73,31.3,0,16.93-9.59,30.37-24.73,30.37-15.75,0-24.33-13.79-24.33-31s8.68-30.72,24.33-30.72Z"/><path class="cls-1" d="M317.7,179.85H306.93a2,2,0,0,1-1.94-2l0-55.52a2.05,2.05,0,0,1,2.08-1.82h10a2.06,2.06,0,0,1,1.92,1.55v8.49h.2c3-7.59,7.27-11.21,14.74-11.21,4.84,0,9.59,1.75,12.62,6.54,2.82,4.44,2.82,11.91,2.82,17.29V178.1a2.05,2.05,0,0,1-2.07,1.75H336.47a2,2,0,0,1-1.92-1.75V148c0-6.08.7-14.95-6.77-14.95a7.08,7.08,0,0,0-6.26,4.43c-1.51,3.39-1.71,6.78-1.71,10.52v29.88a2.08,2.08,0,0,1-2.11,2Z"/><path class="cls-1" d="M184.52,179.71A2.22,2.22,0,0,1,182,180c-3.59-3-4.24-4.36-6.2-7.2-5.94,6-10.14,7.86-17.83,7.86-9.1,0-16.18-5.62-16.18-16.86a18.36,18.36,0,0,1,11.53-17.67c5.86-2.58,14.06-3,20.33-3.75v-1.4c0-2.58.2-5.62-1.31-7.84a7.24,7.24,0,0,0-6.07-2.81c-4.13,0-7.79,2.11-8.7,6.49a2.27,2.27,0,0,1-1.87,2l-10.49-1.14a1.91,1.91,0,0,1-1.61-2.26c2.38-12.54,13.58-16.45,23.75-16.55h.8c5.21.06,11.87,1.49,15.92,5.38,5.26,4.92,4.75,11.47,4.75,18.61v16.85c0,5.07,2.11,7.29,4.09,10,.69,1,.84,2.15,0,2.87-2.21,1.85-6.13,5.26-8.29,7.18l0,0Zm-10.9-26.37c0,4.22.1,7.73-2,11.48-1.72,3-4.46,4.91-7.49,4.91-4.15,0-6.57-3.16-6.57-7.84,0-9.21,8.26-10.89,16.08-10.89v2.34Z"/><path class="cls-1" d="M42.77,179.71a2.24,2.24,0,0,1-2.56.25c-3.59-3-4.24-4.36-6.2-7.2-5.93,6-10.14,7.86-17.82,7.86C7.08,180.62,0,175,0,163.76a18.36,18.36,0,0,1,11.53-17.67c5.87-2.58,14.06-3,20.33-3.75v-1.4c0-2.58.21-5.62-1.31-7.84a7.24,7.24,0,0,0-6.07-2.81c-4.12,0-7.79,2.11-8.69,6.49a2.3,2.3,0,0,1-1.88,2L3.43,137.63a1.9,1.9,0,0,1-1.61-2.26c2.37-12.54,13.57-16.45,23.75-16.55h.8c5.21.06,11.86,1.49,15.91,5.38,5.26,4.92,4.76,11.47,4.76,18.61v16.85c0,5.07,2.1,7.29,4.08,10,.69,1,.85,2.15,0,2.87-2.2,1.85-6.13,5.26-8.29,7.18l0,0ZM31.86,153.34c0,4.22.11,7.73-2,11.48-1.72,3-4.45,4.91-7.49,4.91-4.14,0-6.57-3.16-6.57-7.84C15.78,152.68,24,151,31.86,151v2.34Z"/><path class="cls-2" d="M577.52,168.14V129.25h-9.35v-7.91h9.35V108.63l9.17-3.15v15.86h17.93l-3.38,7.91H586.69v37.28c0,3.64,1.61,6.51,5.44,6.51,4.22,0,7.43-2,10.58-4.24l3,6.61c-5.42,3.29-9,5.71-15.92,5.71-9.06,0-12.27-5.68-12.27-13Z"/><path class="cls-2" d="M366.71,179.89V121.4h7.42l1.32,6.64c9.17-8.87,17.14-9.68,22.59-6.35l-3.82,8.82c-5.85-2.18-11.75-.51-18.45,6v43.36Z"/><path class="cls-2" d="M457.76,177.49V92.3h9.18v30.4c22.87-9.34,40.62,5.6,38.72,28.87-1.33,16.91-12.39,28.91-31,29.63-5.78,0-13.16-1.14-16.87-3.71Zm9.18-46.11v40.35c18.86,6,28.7-7.82,29.69-20.42,1.13-20.3-13.69-27.6-29.69-19.93Z"/><path class="cls-2" d="M622.74,121.55v58.34H613.8V121.55a51.33,51.33,0,0,0,8.94,0Z"/><path class="cls-2" d="M423.2,120c17.06,0,26.66,13.71,26.66,30.61s-9,30.61-26.66,30.61-26.67-13.7-26.67-30.61S406.14,120,423.2,120Zm17.21,30.51c0-12.59-5.28-22.7-17.21-22.7s-17.32,10.11-17.32,22.7,5.94,22.71,17.42,22.71,17.11-10.11,17.11-22.71Z"/><path class="cls-2" d="M538.4,120c17.06,0,26.66,13.71,26.66,30.61s-9,30.61-26.66,30.61-26.66-13.7-26.66-30.61S521.34,120,538.4,120Zm17.22,30.51c0-12.59-5.29-22.7-17.22-22.7s-17.32,10.11-17.32,22.7S527,173.2,538.5,173.2s17.12-10.11,17.12-22.71Z"/><path class="cls-2" d="M619.11,74.65a39,39,0,0,1,4.93.66c5.31.78,10.42-.26,14.32-4.17,2.85-2.84,4.81-6.29,4.82-10a11.29,11.29,0,0,0-.21-2.24A19.45,19.45,0,0,1,643.16,44c1.29-4.48-.26-7.57-3.11-11.15a13.09,13.09,0,0,0-10.46-3.6,15.14,15.14,0,0,1-4.39.65,14.93,14.93,0,1,1,14.17-10.14c-.75,5.54.64,7.44,2.73,10.59,2.79,2.79,6.42,5.14,10.53,3.77a19.44,19.44,0,1,1,2.18,36c.9.3-2.51-.43-2.74-.45-4.67-.51-7.36,1-11,4.65-3.33,3.34-4.24,6.93-4.09,12.19.07,2.44.82,4.25.82,6.88a18.72,18.72,0,1,1-18.72-18.72Zm6.07-52.78a6.94,6.94,0,1,0-6.93-6.93,6.94,6.94,0,0,0,6.93,6.93Zm35.73,17.24a12.51,12.51,0,1,0,12.52,12.51,12.51,12.51,0,0,0-12.52-12.51Zm-8.69,12.51a8.69,8.69,0,1,1,8.69,8.69,8.69,8.69,0,0,1-8.69-8.69Z"/><path class="cls-2" d="M661.66,120c6.15,0,11.61,1.12,15.91,3.8v8.48a28.6,28.6,0,0,0-16-4.31c-11.11,0-18.6,9.87-18.6,22.46,0,12.84,6.85,22.62,18.32,22.62,6.49,0,10.76-1.11,15.37-4.4l2.93,6.73a34,34,0,0,1-18.81,5.76c-17.67,0-27-13.7-27-30.36,0-15.6,9.94-30.78,27.9-30.78Z"/><path class="cls-2" d="M701.1,173.62A26.74,26.74,0,0,1,686,169.57l-3.53,7c5.41,3.48,10.54,4.57,19.2,4.57,6.76,0,12.93-2.57,16.5-6.48A15.46,15.46,0,0,0,722,164c0-8.58-4.88-12.74-12.69-16.61l-7.56-3.65c-4-2-6.79-4.43-6.79-9.41,0-3.35,3.17-6.7,10-6.7a31.72,31.72,0,0,1,15.24,3.58V123.1c-4-2.11-9-3.19-15.54-3.11-14,0-18.74,8.54-18.74,15.29,0,9.13,4.82,12.94,10.91,16.28l8.05,3.73c4.84,2.8,7.55,5.4,7.55,9.49,0,6.08-5.44,8.84-11.29,8.84Z"/></g></g></svg>