<?xml version="1.0" encoding="utf-8"?>
<!-- Generator: Adobe Illustrator 16.0.0, SVG Export Plug-In . SVG Version: 6.00 Build 0)  -->
<!DOCTYPE svg PUBLIC "-//W3C//DTD SVG 1.1//EN" "http://www.w3.org/Graphics/SVG/1.1/DTD/svg11.dtd">
<svg version="1.1" id="Layer_1" xmlns="http://www.w3.org/2000/svg" xmlns:xlink="http://www.w3.org/1999/xlink" x="0px" y="0px"
	 width="476px" height="178.5px" viewBox="0 0 476 178.5" enable-background="new 0 0 476 178.5" xml:space="preserve">
<linearGradient id="SVGID_1_" gradientUnits="userSpaceOnUse" x1="66.8198" y1="177.6055" x2="66.8198" y2="4.882812e-04">
	<stop  offset="0" style="stop-color:#EFEFEF"/>
	<stop  offset="1" style="stop-color:#FFFFFF"/>
</linearGradient>
<path fill="url(#SVGID_1_)" d="M114.126,106.823H60.619l6.287-35.669h53.514L114.126,106.823z M101.638,177.605H48.135l6.292-35.67
	h53.505L101.638,177.605z M126.669,35.668H73.162L79.449,0h53.507L126.669,35.668z M54.19,142.025H0.683l6.287-35.659h53.508
	L54.19,142.025z M66.676,71.251H13.163l6.292-35.678h53.508L66.676,71.251z"/>
<linearGradient id="SVGID_2_" gradientUnits="userSpaceOnUse" x1="295.3975" y1="177.6055" x2="295.3975" y2="4.882812e-04">
	<stop  offset="0" style="stop-color:#EF4140"/>
	<stop  offset="1" style="stop-color:#F15555"/>
</linearGradient>
<path fill="url(#SVGID_2_)" d="M210.552,76.867c0.208,0.522,0.167,0.953-0.119,1.286c-0.283,0.335-0.72,0.509-1.318,0.509h-17.844
	c-0.598,0-1.165-0.174-1.706-0.509c-0.537-0.339-0.91-0.764-1.118-1.286l-8.808-21.325c-0.102-0.294-0.333-0.448-0.705-0.448
	h-12.682c-0.374,0-0.594,0.188-0.657,0.561l-3.677,20.875c-0.254,1.422-1.09,2.133-2.509,2.133h-15.483
	c-1.419,0-2.005-0.711-1.751-2.133l6.446-36.579l3.383-19.188l3.26-18.513c0.112-0.599,0.402-1.107,0.888-1.515
	c0.485-0.407,1.026-0.621,1.621-0.621h48.593c0.599,0,1.275,0.101,2.026,0.283c0.753,0.185,1.368,0.391,1.853,0.616l8.502,10.326
	c0.131,0.521,0.227,1.159,0.278,1.905c0.061,0.746,0.034,1.422-0.073,2.021l-2.673,15.15l-1.446,8.192l-0.192,1.119
	c-0.085,0.445-0.293,0.988-0.631,1.621c-0.336,0.64-0.702,1.22-1.087,1.74l-12.185,10.552L210.552,76.867z M198.534,18.398h-27.155
	l-3.361,19.077h12.904h11.895h0.336h2.02l0.256-1.458l2.231-12.681L198.534,18.398z M305.816,11.219
	c0.129,0.526,0.221,1.176,0.279,1.971c0.033,0.781,0.012,1.475-0.1,2.073l-0.214,1.237l-0.187,1.013l-10.395,59.022
	c-0.116,0.598-0.404,1.089-0.873,1.462c-0.479,0.373-1.023,0.558-1.613,0.558h-15.598c-0.602,0-1.053-0.185-1.354-0.558
	s-0.404-0.864-0.301-1.462l3.555-20.198c0.11-0.598-0.018-1.083-0.363-1.457c-0.348-0.373-0.82-0.563-1.422-0.563H255.02
	c-0.596,0-1.127,0.19-1.612,0.563c-0.47,0.374-0.769,0.859-0.861,1.457l-3.573,20.198c-0.104,0.598-0.381,1.089-0.82,1.462
	c-0.438,0.373-0.953,0.558-1.562,0.558H231c-0.598,0-1.068-0.185-1.413-0.558c-0.345-0.373-0.463-0.864-0.361-1.462l10.487-59.474
	l0.312-1.799l0.058-0.332c0.187-0.599,0.405-1.231,0.671-1.911c0.277-0.67,0.566-1.269,0.873-1.795l12.158-10.32
	c0.555-0.223,1.227-0.431,2.012-0.616C256.577,0.107,257.266,0,257.861,0h1.682h6.395h22.896h3.354h1.235
	c0.603,0,1.272,0.095,2.024,0.277c0.763,0.191,1.369,0.391,1.861,0.616L305.816,11.219z M285.837,17.619h-26.483l-3.498,19.856
	h26.479L285.837,17.619z M344.479,19.749c-0.479,0.367-0.774,0.864-0.885,1.463l-6.406,36.356c-0.114,0.598,0.013,1.107,0.348,1.515
	c0.347,0.407,0.822,0.616,1.398,0.616h36.03c0.595,0,1.074,0.19,1.422,0.562c0.341,0.374,0.451,0.859,0.358,1.455l-2.613,14.812
	c-0.104,0.598-0.395,1.108-0.879,1.511c-0.484,0.408-1.027,0.622-1.619,0.622h-34.457h-6.834h-1.456
	c-0.603,0-1.261-0.078-1.983-0.231c-0.723-0.142-1.322-0.373-1.797-0.671L316.6,67.438c-0.201-0.522-0.316-1.162-0.341-1.907
	c-0.022-0.747,0.034-1.421,0.14-2.024l0.121-0.676l2.099-11.893l4.707-26.702l1.053-5.948l0.537-3.03
	c0.104-0.598,0.294-1.269,0.577-2.02c0.283-0.74,0.619-1.379,1.007-1.905l12.146-10.325c0.566-0.226,1.141-0.425,1.746-0.616
	c0.59-0.188,1.041-0.283,1.342-0.283h1.013h1.45h0.451h0.22h2.59h38.042c0.596,0,1.062,0.214,1.398,0.622
	c0.348,0.408,0.457,0.916,0.348,1.515l-2.602,14.807c-0.104,0.604-0.406,1.106-0.892,1.514c-0.474,0.417-1.017,0.619-1.612,0.619
	h-36.02C345.484,19.188,344.945,19.371,344.479,19.749z M465.818,0.734c0.342,0.408,0.463,0.917,0.354,1.515l-1.128,6.395
	l-0.596,3.362l-0.774,4.382c-0.099,0.598-0.388,1.077-0.86,1.457c-0.485,0.373-1.023,0.561-1.613,0.561h-7.967h-23.334h-6.29
	c-0.37,0-0.603,0.191-0.665,0.559L420.788,31.2c-0.059,0.301,0.104,0.442,0.474,0.442h32.1c0.602,0,1.053,0.214,1.353,0.619
	c0.301,0.407,0.405,0.916,0.29,1.515L453.024,45c-0.116,0.598-0.383,1.107-0.833,1.514c-0.439,0.408-0.966,0.616-1.562,0.616
	h-32.099c-0.37,0-0.602,0.186-0.659,0.564l-0.982,5.498l-0.012,0.112l-1.14,6.508c-0.074,0.372,0.087,0.562,0.457,0.562h4.713
	h25.368h7.521c0.603,0,1.063,0.206,1.404,0.613c0.342,0.41,0.445,0.914,0.342,1.512l-0.786,4.486l-1.029,5.836l-0.646,3.701
	c-0.115,0.598-0.404,1.106-0.891,1.511c-0.476,0.408-1.019,0.622-1.619,0.622h-6.395h-42.632h-6.742
	c-1.422,0-2.005-0.711-1.757-2.133l0.671-3.816l11.471-65.07l0.947-5.388c0.115-0.599,0.395-1.107,0.892-1.515
	c0.474-0.407,1.017-0.621,1.612-0.621h8.192h43.996h3.585C465.003,0.113,465.477,0.321,465.818,0.734z M201.969,99.059
	c0.599,0,1.064,0.209,1.408,0.619c0.332,0.416,0.45,0.913,0.344,1.508l-13.095,74.305c-0.107,0.596-0.402,1.093-0.882,1.49
	c-0.491,0.435-1.032,0.625-1.63,0.625H172.52c-0.604,0-1.071-0.19-1.407-0.612c-0.338-0.404-0.451-0.901-0.35-1.503l4.57-25.924
	c0.106-0.607,0-1.088-0.304-1.469c-0.307-0.365-0.763-0.545-1.356-0.545H151.45c-0.598,0-1.136,0.18-1.615,0.545
	c-0.479,0.381-0.769,0.866-0.87,1.469l-4.57,25.924c-0.255,1.417-1.09,2.115-2.509,2.115h-15.488c-1.429,0-2.006-0.698-1.758-2.115
	l13.095-74.299c0.248-1.416,1.09-2.121,2.509-2.121h15.489c1.419,0,2.006,0.705,1.752,2.121l-4.436,25.145
	c-0.248,1.417,0.339,2.128,1.758,2.128h22.216c0.596,0,1.118-0.202,1.566-0.618c0.445-0.41,0.723-0.908,0.83-1.51l4.428-25.145
	c0.107-0.594,0.402-1.092,0.889-1.508c0.484-0.416,1.022-0.613,1.621-0.613h15.612V99.059L201.969,99.059z M282.809,99.684
	c0.334,0.416,0.444,0.914,0.346,1.508l-1.127,6.4l-0.584,3.359l-0.786,4.376c-0.104,0.612-0.386,1.093-0.861,1.47
	c-0.485,0.363-1.017,0.543-1.61,0.543h-7.975h-23.339h-6.285c-0.362,0-0.596,0.196-0.653,0.584l-2.162,12.217
	c-0.046,0.295,0.115,0.463,0.485,0.463h32.099c0.597,0,1.047,0.195,1.348,0.602c0.307,0.416,0.398,0.913,0.295,1.531l-1.977,11.209
	c-0.104,0.619-0.383,1.117-0.828,1.517c-0.45,0.416-0.971,0.618-1.577,0.618H235.53c-0.373,0-0.604,0.197-0.662,0.561l-0.966,5.51
	l-0.022,0.104l-1.145,6.517c-0.07,0.375,0.089,0.565,0.462,0.565h4.712h25.362h7.511c0.612,0,1.075,0.203,1.403,0.612
	c0.342,0.41,0.463,0.914,0.354,1.515l-0.787,4.499l-1.028,5.827l-0.646,3.711c-0.11,0.597-0.405,1.095-0.885,1.492
	c-0.504,0.422-1.047,0.612-1.647,0.612h-6.383h-42.646h-6.738c-1.419,0-2.007-0.698-1.758-2.115l0.676-3.821l11.475-65.088
	l0.945-5.39c0.106-0.594,0.403-1.092,0.887-1.508c0.48-0.416,1.021-0.612,1.625-0.612h8.191h43.989h3.59
	C281.992,99.059,282.461,99.268,282.809,99.684z M357.289,175.818c0.215,0.525,0.18,0.953-0.109,1.283
	c-0.277,0.354-0.729,0.504-1.324,0.504h-17.847c-0.601,0-1.168-0.15-1.698-0.504c-0.545-0.33-0.914-0.758-1.123-1.283l-8.806-21.327
	c-0.098-0.302-0.34-0.45-0.705-0.45h-12.679c-0.37,0-0.602,0.184-0.659,0.57l-3.682,20.878c-0.255,1.417-1.095,2.116-2.517,2.116
	h-15.481c-1.417,0-2.007-0.699-1.753-2.116l6.447-36.585l3.375-19.2l3.278-18.513c0.099-0.596,0.388-1.092,0.873-1.508
	c0.486-0.418,1.029-0.613,1.625-0.613h48.587c0.596,0,1.271,0.099,2.029,0.283c0.751,0.179,1.37,0.388,1.85,0.606l8.51,10.331
	c0.135,0.516,0.221,1.156,0.277,1.902c0.059,0.752,0.036,1.41-0.08,2.027l-2.672,15.154l-1.433,8.188l-0.209,1.114
	c-0.069,0.45-0.277,1.001-0.613,1.632c-0.347,0.642-0.692,1.219-1.099,1.739l-12.176,10.545L357.289,175.818z M345.282,117.34
	h-27.161l-3.366,19.102h12.905h11.893h0.352h2.02l0.254-1.469l2.237-12.684L345.282,117.34z M451.082,110.286
	c0.127,0.515,0.219,1.155,0.277,1.901c0.058,0.752,0.033,1.418-0.082,2.029l-0.369,2.116l-7.101,40.296l-1.041,5.827
	c-0.098,0.606-0.312,1.278-0.625,2.019c-0.322,0.765-0.635,1.394-0.952,1.914l-12.152,10.314c-0.572,0.3-1.266,0.531-2.087,0.676
	c-0.811,0.161-1.517,0.227-2.11,0.227h-2.354h-27.148h-6.061c-0.601,0-1.26-0.064-1.987-0.221c-0.718-0.15-1.317-0.369-1.781-0.671
	l-8.504-10.313c-0.214-0.532-0.33-1.155-0.342-1.92c-0.022-0.739,0.022-1.41,0.122-2.023l0.422-2.341l7.053-40.07l1.029-5.823
	c0.115-0.617,0.301-1.275,0.59-2.027c0.283-0.746,0.612-1.387,1.006-1.902l12.142-10.331c0.565-0.209,1.236-0.417,2.023-0.606
	c0.774-0.19,1.468-0.283,2.069-0.283h4.821h23.564h7.181c0.602,0,1.271,0.099,2.034,0.283c0.752,0.179,1.359,0.388,1.846,0.606
	L451.082,110.286z M430.73,118.139h-26.374l-7.146,40.51h26.368L430.73,118.139z"/>
</svg>
