<?xml version="1.0" encoding="UTF-8" standalone="no"?>
<svg
   xmlns:dc="http://purl.org/dc/elements/1.1/"
   xmlns:cc="http://creativecommons.org/ns#"
   xmlns:rdf="http://www.w3.org/1999/02/22-rdf-syntax-ns#"
   xmlns:svg="http://www.w3.org/2000/svg"
   xmlns="http://www.w3.org/2000/svg"
   id="svg8"
   version="1.1"
   viewBox="0 0 188.26685 25.38805"
   height="25.38805mm"
   width="188.26685mm">
  <defs
     id="defs2" />
  <metadata
     id="metadata5">
    <rdf:RDF>
      <cc:Work
         rdf:about="">
        <dc:format>image/svg+xml</dc:format>
        <dc:type
           rdf:resource="http://purl.org/dc/dcmitype/StillImage" />
        <dc:title></dc:title>
      </cc:Work>
    </rdf:RDF>
  </metadata>
  <g
     transform="translate(-12.929207,-137.65466)"
     id="layer1">
    <path
       id="path817"
       d="m 12.929207,162.63457 v -23.98582 h 3.59719 v 23.98582 z m 18.41974,-12.814 c -1.48795,-1.504 -2.78091,-2.18744 -4.38669,-2.18744 -2.56452,0 -4.21525,2.28063 -4.21525,5.96244 0,3.52969 1.51042,6.05242 4.32344,6.05242 1.67434,0 2.6738,-0.737 4.06638,-2.226 l 2.26886,2.226 c -1.39795,1.78895 -3.18154,3.3583 -6.4445,3.3583 -4.38132,0 -7.76961,-3.69466 -7.76961,-9.30788 0,-5.96352 3.48794,-9.42679 7.87887,-9.42679 2.64274,0 4.70164,1.06801 6.3663,3.05299 z m 15.92268,3.87569 c 0,3.28224 -1.74823,5.98173 -4.41878,5.98173 -2.67808,0 -4.4863,-2.15531 -4.4863,-6.08242 0,-3.5629 1.64861,-5.93352 4.31489,-5.93352 2.84196,9.3e-4 4.59019,2.37062 4.59019,6.03421 z m 3.56291,-0.10069 c 0,-5.62822 -3.41722,-9.29289 -8.01491,-9.29289 -4.52485,0 -8.02027,3.50827 -8.02027,9.39358 0,5.61751 3.40008,9.34645 7.91957,9.34645 4.62341,0 8.11561,-3.4922 8.11561,-9.44714 z m 13.390323,9.039 V 152.4515 c 0,-3.62396 -1.361527,-4.91586 -3.694653,-4.91586 -2.36848,0 -3.68823,1.67326 -3.68823,4.58378 v 10.51515 h -3.53291 v -17.97945 h 3.53291 v 1.71717 c 0.88054,-1.30261 2.66092,-2.10067 4.505572,-2.10067 4.187422,0 6.402715,2.73591 6.402715,8.05241 v 10.31054 z m 24.847085,-0.0171 v -12.67046 c 0,-1.43223 0.03857,-3.52434 0.07177,-4.20564 -0.27102,0.6813 -0.963034,2.39634 -1.537208,3.76108 l -5.823185,13.48673 -5.752485,-13.48674 c -0.584888,-1.36474 -1.266188,-3.07977 -1.537208,-3.76107 0.03106,0.6813 0.06856,2.7734 0.06856,4.20563 v 12.67046 H 71.167474 V 138.652 h 3.696802 l 5.376483,12.76901 c 0.583817,1.36795 1.340104,3.11513 1.647544,4.10708 0.339578,-0.99195 1.02302,-2.7027 1.60684,-4.10708 l 5.26829,-12.76901 h 3.832844 v 23.96546 z m 17.899115,-10.618 h -8.349136 c 0.313868,-2.87624 1.741816,-4.51736 4.107076,-4.51736 2.89767,0 4.06638,2.05247 4.24206,4.51736 z m 3.57147,1.30368 c 0,-4.86122 -2.47668,-9.00472 -7.57678,-9.00472 -4.650196,0 -7.861732,3.28866 -7.861732,9.37965 0,5.95816 3.555397,9.34217 7.756752,9.34217 2.74126,0 4.62876,-0.84949 6.20454,-2.35992 l -2.09425,-2.25921 c -1.1987,0.89126 -2.40597,1.44401 -3.90141,1.44401 -2.1853,0 -4.134929,-1.47722 -4.506644,-4.93192 h 11.870254 c 0.03,-0.38243 0.10927,-0.95982 0.10927,-1.61006 z m 45.02898,9.33145 v -23.1203 l 3.52112,-1.85322 v 24.97349 z m 17.2778,-5.1076 c -0.83663,1.13014 -2.47346,2.29563 -4.35775,2.29563 -2.33098,0 -3.45042,-1.1987 -3.45042,-2.97479 0,-1.64433 1.44616,-2.68021 3.69252,-2.68021 1.89714,0 3.15262,0.31387 4.11565,0.80128 z m 3.44613,5.1076 v -12.32981 c 0,-4.07494 -2.74126,-6.03314 -6.73051,-6.03314 -2.53559,0 -4.4713,0.54739 -6.16383,1.62612 l 1.36795,2.6545 c 1.39153,-0.77129 2.82911,-1.128 4.68447,-1.128 2.18423,0 3.39579,1.10015 3.39579,3.04228 v 1.34117 c -0.99624,-0.4392 -2.33956,-0.67808 -4.01067,-0.67808 -4.06959,0 -7.13865,1.80823 -7.13865,5.8189 0,4.41666 3.30152,6.05885 6.20775,6.05885 1.95392,0 3.71394,-0.9084 4.94157,-2.16388 v 1.79109 z m 14.73364,-8.59337 c 0,3.79964 -1.32831,5.71606 -3.88105,5.71606 -1.79751,0 -3.42042,-1.31011 -4.22384,-2.36205 v -7.57464 c 0.93946,-1.1505 2.3974,-2.28493 4.09851,-2.28493 2.62129,-9.3e-4 4.00638,1.99034 4.00638,6.50556 z m 3.55433,-0.11034 c 0,-6.85156 -3.05513,-9.65924 -6.94154,-9.65924 -1.85537,0 -3.36044,0.8934 -4.67162,2.10067 v -8.71121 l -3.50398,1.82859 v 23.1449 h 3.50398 v -1.68825 c 1.00588,1.11086 2.70699,2.06104 4.54414,2.06104 3.7193,-9.4e-4 7.06902,-2.90945 7.06902,-9.0765 z m -70.5895,3.5147 c -0.92018,1.16549 -2.39098,2.29349 -4.06959,2.29349 -2.61165,0 -4.05673,-1.98391 -4.05673,-6.50877 0,-3.79535 1.38081,-5.70856 3.91854,-5.70856 1.77396,0 3.42471,1.29404 4.20778,2.35669 z m 3.45792,5.17187 v -24.95635 l -3.48791,1.81252 v 6.84406 c -0.99624,-1.09372 -2.71771,-2.05032 -4.51737,-2.05032 -3.74286,0 -7.10115,2.91159 -7.10115,9.07114 0,6.84406 3.05085,9.65174 6.92119,9.65174 1.87893,0 3.38936,-0.88698 4.69733,-2.08568 v 1.71396 h 3.48791 z m 7.58428,-22.56109 c 0,-1.26511 -1.02302,-2.29778 -2.25922,-2.29778 a 2.2945659,2.2945659 0 0 0 -2.28278,2.29778 c 0,1.23084 1.02516,2.25815 2.28278,2.25815 a 2.2763551,2.2763551 0 0 0 2.25922,-2.25815 z m -0.50027,22.56109 v -17.97517 h -3.53183 v 17.97517 z m 14.11019,-5.10332 c -0.8227,1.13015 -2.47346,2.29778 -4.35025,2.29778 -2.33741,0 -3.47505,-1.20084 -3.47505,-2.98122 0,-1.64005 1.44187,-2.67164 3.70965,-2.67164 1.91857,0 3.14726,0.30316 4.11565,0.78628 z m 3.45899,5.10332 v -12.32338 c 0,-4.07923 -2.74876,-6.02671 -6.75836,-6.02671 -2.53131,0 -4.45202,0.54311 -6.16384,1.60897 l 1.37653,2.67272 c 1.40009,-0.79486 2.83875,-1.12801 4.68661,-1.12801 2.19494,0 3.40007,1.09372 3.40007,3.04336 v 1.33474 c -0.98981,-0.44349 -2.3417,-0.68665 -4.01067,-0.68665 -4.07601,0 -7.16757,1.81358 -7.16757,5.82104 0,4.41881 3.32508,6.05671 6.24096,6.05671 1.94749,0 3.70323,-0.92018 4.93728,-2.15102 v 1.77823 z m 48.28658,-20.01695 v -2.63201 -0.55382 c -0.0653,0.16711 -0.13819,0.33422 -0.19711,0.48955 l -1.22976,2.84839 -1.21584,-2.84839 c -0.0632,-0.15533 -0.13177,-0.32244 -0.19283,-0.47884 0.0171,0.19282 0.0171,0.4135 0.0171,0.54311 v 2.63201 h -0.78628 v -4.94585 h 0.81628 l 1.11943,2.54416 0.26352,0.69094 c 0.0686,-0.21103 0.17568,-0.46063 0.26566,-0.69094 l 1.08837,-2.54416 h 0.85591 v 4.94585 z m -5.85425,-4.11458 v 4.11458 h -0.84091 v -4.11458 h -1.40545 v -0.83127 h 3.65716 v 0.83127 z"
       style="clip-rule:evenodd;fill:#ca3132;fill-rule:evenodd;stroke-width:1.07122588" />
  </g>
</svg>
